<?xml version="1.0" encoding="UTF-8" standalone="no"?>
<!-- Created with Inkscape (http://www.inkscape.org/) -->

<svg
   xmlns:dc="http://purl.org/dc/elements/1.1/"
   xmlns:cc="http://creativecommons.org/ns#"
   xmlns:rdf="http://www.w3.org/1999/02/22-rdf-syntax-ns#"
   xmlns:svg="http://www.w3.org/2000/svg"
   xmlns="http://www.w3.org/2000/svg"
   xmlns:sodipodi="http://sodipodi.sourceforge.net/DTD/sodipodi-0.dtd"
   xmlns:inkscape="http://www.inkscape.org/namespaces/inkscape"
   width="400"
   height="400"
   id="svg3947"
   version="1.1"
   inkscape:version="0.48.3.1 r9886"
   sodipodi:docname="New document 9">
  <defs
     id="defs3949" />
  <sodipodi:namedview
     id="base"
     pagecolor="#ffffff"
     bordercolor="#666666"
     borderopacity="1.0"
     inkscape:pageopacity="0.0"
     inkscape:pageshadow="2"
     inkscape:zoom="0.98994949"
     inkscape:cx="234.5888"
     inkscape:cy="212.91363"
     inkscape:document-units="px"
     inkscape:current-layer="layer1"
     showgrid="true"
     inkscape:window-width="1280"
     inkscape:window-height="741"
     inkscape:window-x="0"
     inkscape:window-y="27"
     inkscape:window-maximized="1">
    <inkscape:grid
       type="xygrid"
       id="grid3955"
       empspacing="5"
       visible="true"
       enabled="false"
       snapvisiblegridlinesonly="true"
       spacingx="40px"
       spacingy="40px" />
    <inkscape:grid
       type="xygrid"
       id="grid4027"
       empspacing="5"
       visible="true"
       enabled="true"
       snapvisiblegridlinesonly="true"
       spacingx="50px"
       spacingy="50px" />
  </sodipodi:namedview>
  <metadata
     id="metadata3952">
    <rdf:RDF>
      <cc:Work
         rdf:about="">
        <dc:format>image/svg+xml</dc:format>
        <dc:type
           rdf:resource="http://purl.org/dc/dcmitype/StillImage" />
        <dc:title></dc:title>
      </cc:Work>
    </rdf:RDF>
  </metadata>
  <g
     inkscape:groupmode="layer"
     id="layer3"
     inkscape:label="other layer">
    <path
       sodipodi:type="arc"
       style="fill:#7f0000;fill-opacity:1;stroke:#ff0000;stroke-width:8;stroke-linejoin:miter;stroke-miterlimit:4;stroke-opacity:1;stroke-dasharray:none"
       id="path4029"
       sodipodi:cx="150"
       sodipodi:cy="150"
       sodipodi:rx="50"
       sodipodi:ry="50"
       d="m 200,150 a 50,50 0 1 1 -100,0 50,50 0 1 1 100,0 z"
       transform="translate(0,70)" />
    <path
       transform="translate(0,170)"
       sodipodi:type="arc"
       style="fill:#d40000;fill-opacity:1;stroke:#ff2929;stroke-width:8;stroke-linejoin:miter;stroke-miterlimit:4;stroke-opacity:1;stroke-dasharray:none"
       id="path4029-0"
       sodipodi:cx="150"
       sodipodi:cy="150"
       sodipodi:rx="50"
       sodipodi:ry="50"
       d="m 200,150 a 50,50 0 1 1 -100,0 50,50 0 1 1 100,0 z" />
    <path
       transform="translate(100,70)"
       sodipodi:type="arc"
       style="fill:#ff5454;fill-opacity:1;stroke:#ff0000;stroke-width:8;stroke-linejoin:miter;stroke-miterlimit:4;stroke-opacity:1;stroke-dasharray:none"
       id="path4029-5"
       sodipodi:cx="150"
       sodipodi:cy="150"
       sodipodi:rx="50"
       sodipodi:ry="50"
       d="m 200,150 a 50,50 0 1 1 -100,0 50,50 0 1 1 100,0 z" />
    <path
       transform="translate(100,170)"
       sodipodi:type="arc"
       style="fill:#ff5454;fill-opacity:1;stroke:#d40000;stroke-width:8;stroke-linejoin:miter;stroke-miterlimit:4;stroke-opacity:1;stroke-dasharray:none"
       id="path4029-3"
       sodipodi:cx="150"
       sodipodi:cy="150"
       sodipodi:rx="50"
       sodipodi:ry="50"
       d="m 200,150 a 50,50 0 1 1 -100,0 50,50 0 1 1 100,0 z" />
  </g>
  <g
     inkscape:label="five seeds"
     inkscape:groupmode="layer"
     id="layer1"
     transform="translate(0,-652.36218)"
     style="display:inline">
    <path
       transform="translate(80,722.36218)"
       sodipodi:type="arc"
       style="fill:#f1f1f1;fill-opacity:1;stroke:#a90000;stroke-width:8;stroke-linejoin:miter;stroke-miterlimit:4;stroke-opacity:1;stroke-dasharray:none"
       id="path3957-7"
       sodipodi:cx="40"
       sodipodi:cy="200"
       sodipodi:rx="40"
       sodipodi:ry="40"
       d="m 80,200 a 40,40 0 1 1 -80,0 40,40 0 1 1 80,0 z" />
    <path
       transform="translate(160,722.36218)"
       sodipodi:type="arc"
       style="fill:#7f0000;fill-opacity:1;stroke:#ff2929;stroke-width:8;stroke-linejoin:miter;stroke-miterlimit:4;stroke-opacity:1;stroke-dasharray:none"
       id="path3957-1"
       sodipodi:cx="40"
       sodipodi:cy="200"
       sodipodi:rx="40"
       sodipodi:ry="40"
       d="m 80,200 a 40,40 0 1 1 -80,0 40,40 0 1 1 80,0 z" />
    <path
       transform="translate(240,722.36218)"
       sodipodi:type="arc"
       style="fill:#f8f8f8;fill-opacity:1;stroke:#d40000;stroke-width:8;stroke-linejoin:miter;stroke-miterlimit:4;stroke-opacity:1;stroke-dasharray:none"
       id="path3957-19"
       sodipodi:cx="40"
       sodipodi:cy="200"
       sodipodi:rx="40"
       sodipodi:ry="40"
       d="m 80,200 a 40,40 0 1 1 -80,0 40,40 0 1 1 80,0 z" />
    <path
       transform="translate(160,642.36218)"
       sodipodi:type="arc"
       style="fill:#ff0000;fill-opacity:1;stroke:#ff7f7f;stroke-width:8;stroke-linejoin:miter;stroke-miterlimit:4;stroke-opacity:1;stroke-dasharray:none"
       id="path3957-0"
       sodipodi:cx="40"
       sodipodi:cy="200"
       sodipodi:rx="40"
       sodipodi:ry="40"
       d="m 80,200 a 40,40 0 1 1 -80,0 40,40 0 1 1 80,0 z" />
    <path
       transform="translate(160,802.36218)"
       sodipodi:type="arc"
       style="fill:#ff2929;fill-opacity:1;stroke:#d40000;stroke-width:8;stroke-linejoin:miter;stroke-miterlimit:4;stroke-opacity:1;stroke-dasharray:none"
       id="path3957-9"
       sodipodi:cx="40"
       sodipodi:cy="200"
       sodipodi:rx="40"
       sodipodi:ry="40"
       d="m 80,200 a 40,40 0 1 1 -80,0 40,40 0 1 1 80,0 z" />
    <rect
       style="fill:#473737;fill-opacity:1;stroke:#906f6f;stroke-width:8.00000572;stroke-linecap:round;stroke-linejoin:round;stroke-miterlimit:4;stroke-opacity:1;stroke-dasharray:none"
       id="rect4065"
       width="200.00139"
       height="199.24699"
       x="98.137321"
       y="673.48682"
       transform="matrix(0.9999929,-0.00376716,0.0021351,0.99999772,0,0)" />
    <path
       sodipodi:type="arc"
       style="fill:#000000;fill-opacity:1;stroke:#6b5353;stroke-width:8;stroke-linejoin:round;stroke-miterlimit:4;stroke-opacity:1;stroke-dasharray:none"
       id="path4578"
       sodipodi:cx="175"
       sodipodi:cy="175"
       sodipodi:rx="25"
       sodipodi:ry="25"
       d="m 200,175 a 25,25 0 1 1 -50,0 25,25 0 1 1 50,0 z"
       transform="translate(0,722.36218)" />
    <path
       sodipodi:type="arc"
       style="fill:#f1f1f1;fill-opacity:1;stroke:#b2b2b2;stroke-width:8;stroke-linejoin:round;stroke-miterlimit:4;stroke-opacity:1;stroke-dasharray:none"
       id="path4580"
       sodipodi:cx="225"
       sodipodi:cy="175"
       sodipodi:rx="25"
       sodipodi:ry="25"
       d="m 250,175 a 25,25 0 1 1 -50,0 25,25 0 1 1 50,0 z"
       transform="translate(0,722.36218)" />
  </g>
</svg>

